<svg class="border shadow-md" viewBox="0 0 1351.68 675.84" style="width: 1351.68px; height: 675.84px;" xmlns="http://www.w3.org/2000/svg" preserveAspectRatio="none"><rect class="bg" id="bg" x="0" y="0" width="1351.68" height="675.84" fill="#d8e3fa"/><g transform="&#10;        translate(-3216.9984&#10;        -932.6591999999998)&#10;        scale(4.76)&#10;                        "><path d="M1163,958.5Q1002,1241,698,1202.5Q394,1164,320,920Q246,676,308,411Q370,146,668,159.5Q966,173,1145,424.5Q1324,676,1163,958.5Z" fill="#7186D3" stroke="none" stroke-width="10"/></g><g transform="&#10;        translate(-2966.9376&#10;        -807.6288)&#10;        scale(4.39)&#10;                        "><path d="M1163,958.5Q1002,1241,698,1202.5Q394,1164,320,920Q246,676,308,411Q370,146,668,159.5Q966,173,1145,424.5Q1324,676,1163,958.5Z" fill="#6b7fd0" stroke="none" stroke-width="10"/></g><g transform="&#10;        translate(-2723.6352&#10;        -685.9776000000002)&#10;        scale(4.03)&#10;                        "><path d="M1163,958.5Q1002,1241,698,1202.5Q394,1164,320,920Q246,676,308,411Q370,146,668,159.5Q966,173,1145,424.5Q1324,676,1163,958.5Z" fill="#6578cd" stroke="none" stroke-width="10"/></g><g transform="&#10;        translate(-2473.5744000000004&#10;        -560.9472000000001)&#10;        scale(3.66)&#10;                        "><path d="M1163,958.5Q1002,1241,698,1202.5Q394,1164,320,920Q246,676,308,411Q370,146,668,159.5Q966,173,1145,424.5Q1324,676,1163,958.5Z" fill="#5f71ca" stroke="none" stroke-width="10"/></g><g transform="&#10;        translate(-2230.272&#10;        -439.296)&#10;        scale(3.30)&#10;                        "><path d="M1163,958.5Q1002,1241,698,1202.5Q394,1164,320,920Q246,676,308,411Q370,146,668,159.5Q966,173,1145,424.5Q1324,676,1163,958.5Z" fill="#596ac7" stroke="none" stroke-width="10"/></g><g transform="&#10;        translate(-1980.2112000000002&#10;        -314.2656000000001)&#10;        scale(2.93)&#10;                        "><path d="M1163,958.5Q1002,1241,698,1202.5Q394,1164,320,920Q246,676,308,411Q370,146,668,159.5Q966,173,1145,424.5Q1324,676,1163,958.5Z" fill="#5363c4" stroke="none" stroke-width="10"/></g><g transform="&#10;        translate(-1730.1504&#10;        -189.23520000000002)&#10;        scale(2.56)&#10;                        "><path d="M1163,958.5Q1002,1241,698,1202.5Q394,1164,320,920Q246,676,308,411Q370,146,668,159.5Q966,173,1145,424.5Q1324,676,1163,958.5Z" fill="#4d5cc1" stroke="none" stroke-width="10"/></g><g transform="&#10;        translate(-1486.8480000000002&#10;        -67.58400000000006)&#10;        scale(2.20)&#10;                        "><path d="M1163,958.5Q1002,1241,698,1202.5Q394,1164,320,920Q246,676,308,411Q370,146,668,159.5Q966,173,1145,424.5Q1324,676,1163,958.5Z" fill="#4755be" stroke="none" stroke-width="10"/></g><g transform="&#10;        translate(-1236.7872000000002&#10;        57.44639999999998)&#10;        scale(1.83)&#10;                        "><path d="M1163,958.5Q1002,1241,698,1202.5Q394,1164,320,920Q246,676,308,411Q370,146,668,159.5Q966,173,1145,424.5Q1324,676,1163,958.5Z" fill="#414ebb" stroke="none" stroke-width="10"/></g><g transform="&#10;        translate(-986.7264&#10;        182.47680000000003)&#10;        scale(1.46)&#10;                        "><path d="M1163,958.5Q1002,1241,698,1202.5Q394,1164,320,920Q246,676,308,411Q370,146,668,159.5Q966,173,1145,424.5Q1324,676,1163,958.5Z" fill="#3b47b8" stroke="none" stroke-width="10"/></g><g transform="&#10;        translate(-743.4240000000001&#10;        304.128)&#10;        scale(1.10)&#10;                        "><path d="M1163,958.5Q1002,1241,698,1202.5Q394,1164,320,920Q246,676,308,411Q370,146,668,159.5Q966,173,1145,424.5Q1324,676,1163,958.5Z" fill="#3540b5" stroke="none" stroke-width="10"/></g><g transform="&#10;        translate(-493.3632&#10;        429.15840000000003)&#10;        scale(0.73)&#10;                        "><path d="M1163,958.5Q1002,1241,698,1202.5Q394,1164,320,920Q246,676,308,411Q370,146,668,159.5Q966,173,1145,424.5Q1324,676,1163,958.5Z" fill="#2f39b2" stroke="none" stroke-width="10"/></g><g transform="&#10;        translate(-250.06080000000003&#10;        550.8096)&#10;        scale(0.37)&#10;                        "><path d="M1163,958.5Q1002,1241,698,1202.5Q394,1164,320,920Q246,676,308,411Q370,146,668,159.5Q966,173,1145,424.5Q1324,676,1163,958.5Z" fill="#2932af" stroke="none" stroke-width="10"/></g></svg>